<mxfile host="app.diagrams.net" agent="Mozilla/5.0 (X11; Ubuntu; Linux x86_64; rv:133.0) Gecko/20100101 Firefox/133.0" version="26.1.1" pages="2">
  <diagram name="no DUT" id="E1THIllQ47njp4CXYvg_">
    <mxGraphModel dx="1972" dy="1180" grid="1" gridSize="10" guides="1" tooltips="1" connect="1" arrows="1" fold="1" page="1" pageScale="1" pageWidth="850" pageHeight="1100" math="0" shadow="0">
      <root>
        <mxCell id="0" />
        <mxCell id="1" parent="0" />
        <mxCell id="yTOJs4qH4SKKXYz4oZ4m-1" value="" style="rounded=0;whiteSpace=wrap;html=1;" parent="1" vertex="1">
          <mxGeometry x="190" y="140" width="455.36" height="590" as="geometry" />
        </mxCell>
        <mxCell id="yTOJs4qH4SKKXYz4oZ4m-2" value="top_noDUT" style="text;html=1;align=center;verticalAlign=middle;resizable=0;points=[];autosize=1;strokeColor=none;fillColor=none;" parent="1" vertex="1">
          <mxGeometry x="190" y="140" width="80" height="30" as="geometry" />
        </mxCell>
        <mxCell id="yTOJs4qH4SKKXYz4oZ4m-3" value="" style="rounded=0;whiteSpace=wrap;html=1;" parent="1" vertex="1">
          <mxGeometry x="212.68" y="210" width="410" height="510" as="geometry" />
        </mxCell>
        <mxCell id="yTOJs4qH4SKKXYz4oZ4m-4" value="test" style="text;html=1;align=center;verticalAlign=middle;resizable=0;points=[];autosize=1;strokeColor=none;fillColor=none;" parent="1" vertex="1">
          <mxGeometry x="210" y="210" width="40" height="30" as="geometry" />
        </mxCell>
        <mxCell id="yTOJs4qH4SKKXYz4oZ4m-5" value="" style="rounded=0;whiteSpace=wrap;html=1;" parent="1" vertex="1">
          <mxGeometry x="241" y="250" width="350" height="460" as="geometry" />
        </mxCell>
        <mxCell id="yTOJs4qH4SKKXYz4oZ4m-6" value="tb" style="text;html=1;align=center;verticalAlign=middle;resizable=0;points=[];autosize=1;strokeColor=none;fillColor=none;" parent="1" vertex="1">
          <mxGeometry x="241" y="250" width="30" height="30" as="geometry" />
        </mxCell>
        <mxCell id="yTOJs4qH4SKKXYz4oZ4m-7" value="" style="rounded=0;whiteSpace=wrap;html=1;" parent="1" vertex="1">
          <mxGeometry x="480" y="270" width="87.32" height="40" as="geometry" />
        </mxCell>
        <mxCell id="yTOJs4qH4SKKXYz4oZ4m-8" value="scb" style="text;html=1;align=center;verticalAlign=middle;resizable=0;points=[];autosize=1;strokeColor=none;fillColor=none;" parent="1" vertex="1">
          <mxGeometry x="480" y="270" width="40" height="30" as="geometry" />
        </mxCell>
        <mxCell id="yTOJs4qH4SKKXYz4oZ4m-12" value="" style="whiteSpace=wrap;html=1;aspect=fixed;" parent="1" vertex="1">
          <mxGeometry x="257.68" y="330" width="320" height="320" as="geometry" />
        </mxCell>
        <mxCell id="yTOJs4qH4SKKXYz4oZ4m-13" value="uart_uvc" style="text;html=1;align=center;verticalAlign=middle;resizable=0;points=[];autosize=1;strokeColor=none;fillColor=none;" parent="1" vertex="1">
          <mxGeometry x="286" y="330" width="70" height="30" as="geometry" />
        </mxCell>
        <mxCell id="yTOJs4qH4SKKXYz4oZ4m-14" value="" style="whiteSpace=wrap;html=1;aspect=fixed;" parent="1" vertex="1">
          <mxGeometry x="310" y="410" width="100" height="100" as="geometry" />
        </mxCell>
        <mxCell id="yTOJs4qH4SKKXYz4oZ4m-15" value="" style="whiteSpace=wrap;html=1;aspect=fixed;" parent="1" vertex="1">
          <mxGeometry x="425" y="410" width="100" height="100" as="geometry" />
        </mxCell>
        <mxCell id="yTOJs4qH4SKKXYz4oZ4m-16" value="tx_agent" style="text;html=1;align=center;verticalAlign=middle;resizable=0;points=[];autosize=1;strokeColor=none;fillColor=none;" parent="1" vertex="1">
          <mxGeometry x="417" y="400" width="70" height="30" as="geometry" />
        </mxCell>
        <mxCell id="yTOJs4qH4SKKXYz4oZ4m-17" value="rx_agent" style="text;html=1;align=center;verticalAlign=middle;resizable=0;points=[];autosize=1;strokeColor=none;fillColor=none;" parent="1" vertex="1">
          <mxGeometry x="306" y="400" width="70" height="30" as="geometry" />
        </mxCell>
        <mxCell id="yTOJs4qH4SKKXYz4oZ4m-18" value="" style="whiteSpace=wrap;html=1;aspect=fixed;" parent="1" vertex="1">
          <mxGeometry x="316" y="470" width="30" height="30" as="geometry" />
        </mxCell>
        <mxCell id="yTOJs4qH4SKKXYz4oZ4m-105" style="edgeStyle=orthogonalEdgeStyle;rounded=0;orthogonalLoop=1;jettySize=auto;html=1;entryX=0;entryY=0.5;entryDx=0;entryDy=0;exitX=0.25;exitY=1;exitDx=0;exitDy=0;labelBackgroundColor=light-dark(#FFFFFF,#3333FF);fillColor=#a20025;strokeColor=#CC0000;" parent="1" source="yTOJs4qH4SKKXYz4oZ4m-18" target="yTOJs4qH4SKKXYz4oZ4m-100" edge="1">
          <mxGeometry relative="1" as="geometry">
            <Array as="points">
              <mxPoint x="320" y="500" />
              <mxPoint x="320" y="520" />
              <mxPoint x="290" y="520" />
              <mxPoint x="290" y="600" />
            </Array>
          </mxGeometry>
        </mxCell>
        <mxCell id="yTOJs4qH4SKKXYz4oZ4m-19" value="drv" style="text;html=1;align=center;verticalAlign=middle;resizable=0;points=[];autosize=1;strokeColor=none;fillColor=none;" parent="1" vertex="1">
          <mxGeometry x="310" y="467" width="40" height="30" as="geometry" />
        </mxCell>
        <mxCell id="yTOJs4qH4SKKXYz4oZ4m-20" value="" style="whiteSpace=wrap;html=1;aspect=fixed;" parent="1" vertex="1">
          <mxGeometry x="316" y="437" width="30" height="30" as="geometry" />
        </mxCell>
        <mxCell id="yTOJs4qH4SKKXYz4oZ4m-21" value="" style="whiteSpace=wrap;html=1;aspect=fixed;" parent="1" vertex="1">
          <mxGeometry x="370" y="470" width="30" height="30" as="geometry" />
        </mxCell>
        <mxCell id="yTOJs4qH4SKKXYz4oZ4m-22" value="drv" style="whiteSpace=wrap;html=1;aspect=fixed;" parent="1" vertex="1">
          <mxGeometry x="433" y="473" width="30" height="30" as="geometry" />
        </mxCell>
        <mxCell id="yTOJs4qH4SKKXYz4oZ4m-23" value="" style="whiteSpace=wrap;html=1;aspect=fixed;" parent="1" vertex="1">
          <mxGeometry x="433" y="440" width="30" height="30" as="geometry" />
        </mxCell>
        <mxCell id="yTOJs4qH4SKKXYz4oZ4m-24" value="mon" style="whiteSpace=wrap;html=1;aspect=fixed;" parent="1" vertex="1">
          <mxGeometry x="487" y="473" width="30" height="30" as="geometry" />
        </mxCell>
        <mxCell id="yTOJs4qH4SKKXYz4oZ4m-26" value="mon" style="text;html=1;align=center;verticalAlign=middle;resizable=0;points=[];autosize=1;strokeColor=none;fillColor=none;" parent="1" vertex="1">
          <mxGeometry x="360" y="470" width="50" height="30" as="geometry" />
        </mxCell>
        <mxCell id="yTOJs4qH4SKKXYz4oZ4m-28" value="seqr" style="text;html=1;align=center;verticalAlign=middle;resizable=0;points=[];autosize=1;strokeColor=none;fillColor=none;" parent="1" vertex="1">
          <mxGeometry x="306" y="437" width="50" height="30" as="geometry" />
        </mxCell>
        <mxCell id="yTOJs4qH4SKKXYz4oZ4m-29" value="seqr" style="text;html=1;align=center;verticalAlign=middle;resizable=0;points=[];autosize=1;strokeColor=none;fillColor=none;" parent="1" vertex="1">
          <mxGeometry x="423" y="437" width="50" height="30" as="geometry" />
        </mxCell>
        <mxCell id="yTOJs4qH4SKKXYz4oZ4m-30" value="" style="rounded=0;whiteSpace=wrap;html=1;" parent="1" vertex="1">
          <mxGeometry x="337.68" y="550" width="160" height="80" as="geometry" />
        </mxCell>
        <mxCell id="yTOJs4qH4SKKXYz4oZ4m-31" value="" style="shape=flexArrow;endArrow=classic;startArrow=classic;html=1;rounded=0;entryX=0.5;entryY=1;entryDx=0;entryDy=0;exitX=0.147;exitY=-0.007;exitDx=0;exitDy=0;exitPerimeter=0;startWidth=11.6;startSize=3.38;endWidth=6.8;endSize=3.38;" parent="1" source="yTOJs4qH4SKKXYz4oZ4m-30" target="yTOJs4qH4SKKXYz4oZ4m-14" edge="1">
          <mxGeometry width="100" height="100" relative="1" as="geometry">
            <mxPoint x="520" y="530" as="sourcePoint" />
            <mxPoint x="620" y="430" as="targetPoint" />
          </mxGeometry>
        </mxCell>
        <mxCell id="yTOJs4qH4SKKXYz4oZ4m-32" value="" style="shape=flexArrow;endArrow=classic;startArrow=classic;html=1;rounded=0;entryX=0.5;entryY=1;entryDx=0;entryDy=0;exitX=0.185;exitY=0.013;exitDx=0;exitDy=0;exitPerimeter=0;startWidth=11.6;startSize=3.38;endWidth=6.8;endSize=3.38;" parent="1" edge="1">
          <mxGeometry width="100" height="100" relative="1" as="geometry">
            <mxPoint x="468" y="550" as="sourcePoint" />
            <mxPoint x="468" y="510" as="targetPoint" />
          </mxGeometry>
        </mxCell>
        <mxCell id="yTOJs4qH4SKKXYz4oZ4m-64" value="&lt;font style=&quot;font-size: 8px;&quot;&gt;&lt;u&gt;active&lt;/u&gt;&lt;/font&gt;" style="text;html=1;align=center;verticalAlign=middle;whiteSpace=wrap;rounded=0;" parent="1" vertex="1">
          <mxGeometry x="350" y="430" width="60" height="30" as="geometry" />
        </mxCell>
        <mxCell id="yTOJs4qH4SKKXYz4oZ4m-65" value="&lt;font style=&quot;font-size: 8px;&quot;&gt;&lt;u&gt;active&lt;/u&gt;&lt;/font&gt;" style="text;html=1;align=center;verticalAlign=middle;whiteSpace=wrap;rounded=0;" parent="1" vertex="1">
          <mxGeometry x="470" y="430" width="60" height="30" as="geometry" />
        </mxCell>
        <mxCell id="yTOJs4qH4SKKXYz4oZ4m-95" value="&lt;font style=&quot;font-size: 9px;&quot;&gt;data_in&lt;/font&gt;" style="text;html=1;align=center;verticalAlign=middle;resizable=0;points=[];autosize=1;strokeColor=none;fillColor=none;" parent="1" vertex="1">
          <mxGeometry x="442.68" y="540" width="50" height="30" as="geometry" />
        </mxCell>
        <mxCell id="yTOJs4qH4SKKXYz4oZ4m-96" value="&lt;font style=&quot;font-size: 9px;&quot;&gt;data_out&lt;/font&gt;" style="text;html=1;align=center;verticalAlign=middle;resizable=0;points=[];autosize=1;strokeColor=none;fillColor=none;" parent="1" vertex="1">
          <mxGeometry x="332.68" y="540" width="60" height="30" as="geometry" />
        </mxCell>
        <mxCell id="yTOJs4qH4SKKXYz4oZ4m-97" value="vif" style="text;html=1;align=center;verticalAlign=middle;resizable=0;points=[];autosize=1;strokeColor=none;fillColor=none;" parent="1" vertex="1">
          <mxGeometry x="330" y="560" width="40" height="30" as="geometry" />
        </mxCell>
        <mxCell id="yTOJs4qH4SKKXYz4oZ4m-99" value="&lt;font style=&quot;font-size: 7px;&quot;&gt;task tx_2_rx&lt;/font&gt;" style="ellipse;whiteSpace=wrap;html=1;" parent="1" vertex="1">
          <mxGeometry x="445.5" y="570" width="53" height="20" as="geometry" />
        </mxCell>
        <mxCell id="yTOJs4qH4SKKXYz4oZ4m-100" value="&lt;font style=&quot;font-size: 7px;&quot;&gt;task done&lt;/font&gt;" style="ellipse;whiteSpace=wrap;html=1;" parent="1" vertex="1">
          <mxGeometry x="337.68" y="590" width="53" height="20" as="geometry" />
        </mxCell>
        <mxCell id="yTOJs4qH4SKKXYz4oZ4m-103" style="edgeStyle=orthogonalEdgeStyle;rounded=0;orthogonalLoop=1;jettySize=auto;html=1;entryX=0;entryY=0.5;entryDx=0;entryDy=0;exitX=0.386;exitY=1.026;exitDx=0;exitDy=0;exitPerimeter=0;labelBackgroundColor=light-dark(#FFFFFF,#3333FF);fillColor=#a20025;strokeColor=#CC0000;" parent="1" target="yTOJs4qH4SKKXYz4oZ4m-99" edge="1">
          <mxGeometry relative="1" as="geometry">
            <mxPoint x="443.43999999999994" y="503.7800000000001" as="sourcePoint" />
            <Array as="points">
              <mxPoint x="443" y="520" />
              <mxPoint x="420" y="520" />
              <mxPoint x="420" y="580" />
            </Array>
          </mxGeometry>
        </mxCell>
        <mxCell id="yTOJs4qH4SKKXYz4oZ4m-106" style="edgeStyle=orthogonalEdgeStyle;rounded=0;orthogonalLoop=1;jettySize=auto;html=1;entryX=-0.025;entryY=0.484;entryDx=0;entryDy=0;entryPerimeter=0;labelBackgroundColor=light-dark(#FFFFFF,#3333FF);fontColor=#0000FF;fillColor=#0050ef;strokeColor=#001DBC;" parent="1" source="yTOJs4qH4SKKXYz4oZ4m-26" target="yTOJs4qH4SKKXYz4oZ4m-8" edge="1">
          <mxGeometry relative="1" as="geometry">
            <Array as="points">
              <mxPoint x="400" y="285" />
            </Array>
          </mxGeometry>
        </mxCell>
        <mxCell id="yTOJs4qH4SKKXYz4oZ4m-108" style="edgeStyle=orthogonalEdgeStyle;rounded=0;orthogonalLoop=1;jettySize=auto;html=1;entryX=0.447;entryY=0.965;entryDx=0;entryDy=0;entryPerimeter=0;exitX=0.003;exitY=0.563;exitDx=0;exitDy=0;exitPerimeter=0;labelBackgroundColor=light-dark(#FFFFFF,#3333FF);fontColor=#0000FF;fillColor=#0050ef;strokeColor=#001DBC;" parent="1" source="yTOJs4qH4SKKXYz4oZ4m-22" target="yTOJs4qH4SKKXYz4oZ4m-7" edge="1">
          <mxGeometry relative="1" as="geometry">
            <mxPoint x="430" y="489" as="sourcePoint" />
            <Array as="points">
              <mxPoint x="420" y="490" />
              <mxPoint x="420" y="350" />
              <mxPoint x="519" y="350" />
            </Array>
          </mxGeometry>
        </mxCell>
        <mxCell id="yTOJs4qH4SKKXYz4oZ4m-110" value="&lt;font style=&quot;font-size: 7px;&quot;&gt;Bud rate&lt;/font&gt;" style="ellipse;whiteSpace=wrap;html=1;" parent="1" vertex="1">
          <mxGeometry x="396" y="590" width="36.32" height="20" as="geometry" />
        </mxCell>
      </root>
    </mxGraphModel>
  </diagram>
  <diagram name="with DUT" id="d7AFgd-hHPLvPaEiXM-F">
    <mxGraphModel dx="3944" dy="1260" grid="1" gridSize="10" guides="1" tooltips="1" connect="1" arrows="1" fold="1" page="1" pageScale="1" pageWidth="850" pageHeight="1100" math="0" shadow="0">
      <root>
        <mxCell id="uYB8dWy_XtuO8vd2l1Ao-0" />
        <mxCell id="uYB8dWy_XtuO8vd2l1Ao-1" parent="uYB8dWy_XtuO8vd2l1Ao-0" />
        <mxCell id="uYB8dWy_XtuO8vd2l1Ao-30" value="" style="rounded=0;whiteSpace=wrap;html=1;" parent="uYB8dWy_XtuO8vd2l1Ao-1" vertex="1">
          <mxGeometry x="210" y="1150" width="455.36" height="840" as="geometry" />
        </mxCell>
        <mxCell id="uYB8dWy_XtuO8vd2l1Ao-31" value="top_DUT" style="text;html=1;align=center;verticalAlign=middle;resizable=0;points=[];autosize=1;strokeColor=none;fillColor=none;" parent="uYB8dWy_XtuO8vd2l1Ao-1" vertex="1">
          <mxGeometry x="215" y="1150" width="70" height="30" as="geometry" />
        </mxCell>
        <mxCell id="uYB8dWy_XtuO8vd2l1Ao-32" value="" style="rounded=0;whiteSpace=wrap;html=1;" parent="uYB8dWy_XtuO8vd2l1Ao-1" vertex="1">
          <mxGeometry x="232.68" y="1220" width="410" height="730" as="geometry" />
        </mxCell>
        <mxCell id="uYB8dWy_XtuO8vd2l1Ao-33" value="test" style="text;html=1;align=center;verticalAlign=middle;resizable=0;points=[];autosize=1;strokeColor=none;fillColor=none;" parent="uYB8dWy_XtuO8vd2l1Ao-1" vertex="1">
          <mxGeometry x="230" y="1220" width="40" height="30" as="geometry" />
        </mxCell>
        <mxCell id="uYB8dWy_XtuO8vd2l1Ao-34" value="" style="rounded=0;whiteSpace=wrap;html=1;" parent="uYB8dWy_XtuO8vd2l1Ao-1" vertex="1">
          <mxGeometry x="261" y="1260" width="350" height="670" as="geometry" />
        </mxCell>
        <mxCell id="uYB8dWy_XtuO8vd2l1Ao-35" value="tb" style="text;html=1;align=center;verticalAlign=middle;resizable=0;points=[];autosize=1;strokeColor=none;fillColor=none;" parent="uYB8dWy_XtuO8vd2l1Ao-1" vertex="1">
          <mxGeometry x="261" y="1260" width="30" height="30" as="geometry" />
        </mxCell>
        <mxCell id="uYB8dWy_XtuO8vd2l1Ao-36" value="" style="rounded=0;whiteSpace=wrap;html=1;" parent="uYB8dWy_XtuO8vd2l1Ao-1" vertex="1">
          <mxGeometry x="500" y="1280" width="87.32" height="40" as="geometry" />
        </mxCell>
        <mxCell id="uYB8dWy_XtuO8vd2l1Ao-37" value="scb" style="text;html=1;align=center;verticalAlign=middle;resizable=0;points=[];autosize=1;strokeColor=none;fillColor=none;" parent="uYB8dWy_XtuO8vd2l1Ao-1" vertex="1">
          <mxGeometry x="500" y="1280" width="40" height="30" as="geometry" />
        </mxCell>
        <mxCell id="uYB8dWy_XtuO8vd2l1Ao-38" value="" style="whiteSpace=wrap;html=1;aspect=fixed;" parent="uYB8dWy_XtuO8vd2l1Ao-1" vertex="1">
          <mxGeometry x="306" y="1340" width="260" height="260" as="geometry" />
        </mxCell>
        <mxCell id="uYB8dWy_XtuO8vd2l1Ao-39" value="uart_uvc" style="text;html=1;align=center;verticalAlign=middle;resizable=0;points=[];autosize=1;strokeColor=none;fillColor=none;" parent="uYB8dWy_XtuO8vd2l1Ao-1" vertex="1">
          <mxGeometry x="306" y="1340" width="70" height="30" as="geometry" />
        </mxCell>
        <mxCell id="uYB8dWy_XtuO8vd2l1Ao-40" value="" style="whiteSpace=wrap;html=1;aspect=fixed;" parent="uYB8dWy_XtuO8vd2l1Ao-1" vertex="1">
          <mxGeometry x="330" y="1420" width="100" height="100" as="geometry" />
        </mxCell>
        <mxCell id="uYB8dWy_XtuO8vd2l1Ao-41" value="" style="whiteSpace=wrap;html=1;aspect=fixed;" parent="uYB8dWy_XtuO8vd2l1Ao-1" vertex="1">
          <mxGeometry x="445" y="1420" width="100" height="100" as="geometry" />
        </mxCell>
        <mxCell id="uYB8dWy_XtuO8vd2l1Ao-42" value="tx_agent" style="text;html=1;align=center;verticalAlign=middle;resizable=0;points=[];autosize=1;strokeColor=none;fillColor=none;" parent="uYB8dWy_XtuO8vd2l1Ao-1" vertex="1">
          <mxGeometry x="437" y="1410" width="70" height="30" as="geometry" />
        </mxCell>
        <mxCell id="uYB8dWy_XtuO8vd2l1Ao-43" value="rx_agent" style="text;html=1;align=center;verticalAlign=middle;resizable=0;points=[];autosize=1;strokeColor=none;fillColor=none;" parent="uYB8dWy_XtuO8vd2l1Ao-1" vertex="1">
          <mxGeometry x="326" y="1410" width="70" height="30" as="geometry" />
        </mxCell>
        <mxCell id="uYB8dWy_XtuO8vd2l1Ao-44" value="" style="whiteSpace=wrap;html=1;aspect=fixed;" parent="uYB8dWy_XtuO8vd2l1Ao-1" vertex="1">
          <mxGeometry x="336" y="1480" width="30" height="30" as="geometry" />
        </mxCell>
        <mxCell id="uYB8dWy_XtuO8vd2l1Ao-45" value="drv" style="text;html=1;align=center;verticalAlign=middle;resizable=0;points=[];autosize=1;strokeColor=none;fillColor=none;" parent="uYB8dWy_XtuO8vd2l1Ao-1" vertex="1">
          <mxGeometry x="330" y="1477" width="40" height="30" as="geometry" />
        </mxCell>
        <mxCell id="uYB8dWy_XtuO8vd2l1Ao-46" value="" style="whiteSpace=wrap;html=1;aspect=fixed;" parent="uYB8dWy_XtuO8vd2l1Ao-1" vertex="1">
          <mxGeometry x="336" y="1447" width="30" height="30" as="geometry" />
        </mxCell>
        <mxCell id="uYB8dWy_XtuO8vd2l1Ao-47" value="" style="whiteSpace=wrap;html=1;aspect=fixed;" parent="uYB8dWy_XtuO8vd2l1Ao-1" vertex="1">
          <mxGeometry x="390" y="1480" width="30" height="30" as="geometry" />
        </mxCell>
        <mxCell id="uYB8dWy_XtuO8vd2l1Ao-48" value="" style="whiteSpace=wrap;html=1;aspect=fixed;" parent="uYB8dWy_XtuO8vd2l1Ao-1" vertex="1">
          <mxGeometry x="453" y="1483" width="30" height="30" as="geometry" />
        </mxCell>
        <mxCell id="uYB8dWy_XtuO8vd2l1Ao-49" value="" style="whiteSpace=wrap;html=1;aspect=fixed;" parent="uYB8dWy_XtuO8vd2l1Ao-1" vertex="1">
          <mxGeometry x="453" y="1450" width="30" height="30" as="geometry" />
        </mxCell>
        <mxCell id="uYB8dWy_XtuO8vd2l1Ao-50" value="" style="whiteSpace=wrap;html=1;aspect=fixed;" parent="uYB8dWy_XtuO8vd2l1Ao-1" vertex="1">
          <mxGeometry x="507" y="1483" width="30" height="30" as="geometry" />
        </mxCell>
        <mxCell id="uYB8dWy_XtuO8vd2l1Ao-51" value="drv" style="text;html=1;align=center;verticalAlign=middle;resizable=0;points=[];autosize=1;strokeColor=none;fillColor=none;" parent="uYB8dWy_XtuO8vd2l1Ao-1" vertex="1">
          <mxGeometry x="448" y="1483" width="40" height="30" as="geometry" />
        </mxCell>
        <mxCell id="uYB8dWy_XtuO8vd2l1Ao-52" value="mon" style="text;html=1;align=center;verticalAlign=middle;resizable=0;points=[];autosize=1;strokeColor=none;fillColor=none;" parent="uYB8dWy_XtuO8vd2l1Ao-1" vertex="1">
          <mxGeometry x="380" y="1477" width="50" height="30" as="geometry" />
        </mxCell>
        <mxCell id="uYB8dWy_XtuO8vd2l1Ao-53" value="mon" style="text;html=1;align=center;verticalAlign=middle;resizable=0;points=[];autosize=1;strokeColor=none;fillColor=none;" parent="uYB8dWy_XtuO8vd2l1Ao-1" vertex="1">
          <mxGeometry x="497" y="1483" width="50" height="30" as="geometry" />
        </mxCell>
        <mxCell id="uYB8dWy_XtuO8vd2l1Ao-54" value="seqr" style="text;html=1;align=center;verticalAlign=middle;resizable=0;points=[];autosize=1;strokeColor=none;fillColor=none;" parent="uYB8dWy_XtuO8vd2l1Ao-1" vertex="1">
          <mxGeometry x="326" y="1447" width="50" height="30" as="geometry" />
        </mxCell>
        <mxCell id="uYB8dWy_XtuO8vd2l1Ao-55" value="seqr" style="text;html=1;align=center;verticalAlign=middle;resizable=0;points=[];autosize=1;strokeColor=none;fillColor=none;" parent="uYB8dWy_XtuO8vd2l1Ao-1" vertex="1">
          <mxGeometry x="443" y="1447" width="50" height="30" as="geometry" />
        </mxCell>
        <mxCell id="uYB8dWy_XtuO8vd2l1Ao-56" value="if" style="rounded=0;whiteSpace=wrap;html=1;" parent="uYB8dWy_XtuO8vd2l1Ao-1" vertex="1">
          <mxGeometry x="356" y="1660" width="160" height="30" as="geometry" />
        </mxCell>
        <mxCell id="uYB8dWy_XtuO8vd2l1Ao-57" value="" style="shape=flexArrow;endArrow=classic;startArrow=classic;html=1;rounded=0;entryX=0.5;entryY=1;entryDx=0;entryDy=0;exitX=0.147;exitY=-0.007;exitDx=0;exitDy=0;exitPerimeter=0;startWidth=11.6;startSize=3.38;endWidth=6.8;endSize=3.38;" parent="uYB8dWy_XtuO8vd2l1Ao-1" source="uYB8dWy_XtuO8vd2l1Ao-56" target="uYB8dWy_XtuO8vd2l1Ao-40" edge="1">
          <mxGeometry width="100" height="100" relative="1" as="geometry">
            <mxPoint x="540" y="1540" as="sourcePoint" />
            <mxPoint x="640" y="1440" as="targetPoint" />
          </mxGeometry>
        </mxCell>
        <mxCell id="uYB8dWy_XtuO8vd2l1Ao-60" value="&lt;u&gt;passive&lt;/u&gt;" style="text;html=1;align=center;verticalAlign=middle;whiteSpace=wrap;rounded=0;fontSize=13;" parent="uYB8dWy_XtuO8vd2l1Ao-1" vertex="1">
          <mxGeometry x="480" y="1430" width="60" height="30" as="geometry" />
        </mxCell>
        <mxCell id="uYB8dWy_XtuO8vd2l1Ao-61" value="&lt;font&gt;&lt;u&gt;active&lt;/u&gt;&lt;/font&gt;" style="text;html=1;align=center;verticalAlign=middle;whiteSpace=wrap;rounded=0;fontSize=13;" parent="uYB8dWy_XtuO8vd2l1Ao-1" vertex="1">
          <mxGeometry x="370" y="1430" width="60" height="30" as="geometry" />
        </mxCell>
        <mxCell id="uYB8dWy_XtuO8vd2l1Ao-62" value="" style="shape=flexArrow;endArrow=classic;startArrow=classic;html=1;rounded=0;entryX=0.861;entryY=1;entryDx=0;entryDy=0;startWidth=11.6;startSize=3.38;endWidth=6.8;endSize=3.38;entryPerimeter=0;" parent="uYB8dWy_XtuO8vd2l1Ao-1" edge="1">
          <mxGeometry width="100" height="100" relative="1" as="geometry">
            <mxPoint x="493" y="1660" as="sourcePoint" />
            <mxPoint x="488.7600000000001" y="1520" as="targetPoint" />
          </mxGeometry>
        </mxCell>
        <mxCell id="uYB8dWy_XtuO8vd2l1Ao-63" value="DUT" style="whiteSpace=wrap;html=1;aspect=fixed;" parent="uYB8dWy_XtuO8vd2l1Ao-1" vertex="1">
          <mxGeometry x="350.68" y="1760" width="150" height="150" as="geometry" />
        </mxCell>
        <mxCell id="uYB8dWy_XtuO8vd2l1Ao-64" value="" style="shape=flexArrow;endArrow=classic;startArrow=classic;html=1;rounded=0;entryX=0.5;entryY=1;entryDx=0;entryDy=0;startWidth=11.6;startSize=3.38;endWidth=6.8;endSize=3.38;" parent="uYB8dWy_XtuO8vd2l1Ao-1" edge="1">
          <mxGeometry width="100" height="100" relative="1" as="geometry">
            <mxPoint x="436" y="1760" as="sourcePoint" />
            <mxPoint x="435.62" y="1690" as="targetPoint" />
          </mxGeometry>
        </mxCell>
      </root>
    </mxGraphModel>
  </diagram>
</mxfile>
